<?xml version="1.0" encoding="UTF-8" standalone="no"?>
<svg
   viewBox="0 0 589.206 279.276"
   version="1.1"
   id="svg91"
   sodipodi:docname="bluey-trademark-white.svg"
   inkscape:version="1.3 (0e150ed6c4, 2023-07-21)"
   xmlns:inkscape="http://www.inkscape.org/namespaces/inkscape"
   xmlns:sodipodi="http://sodipodi.sourceforge.net/DTD/sodipodi-0.dtd"
   xmlns="http://www.w3.org/2000/svg"
   xmlns:svg="http://www.w3.org/2000/svg">
  <sodipodi:namedview
     id="namedview91"
     pagecolor="#ffffff"
     bordercolor="#000000"
     borderopacity="0.25"
     inkscape:showpageshadow="2"
     inkscape:pageopacity="0.0"
     inkscape:pagecheckerboard="0"
     inkscape:deskcolor="#d1d1d1"
     inkscape:zoom="1.0590524"
     inkscape:cx="238.89281"
     inkscape:cy="43.907177"
     inkscape:window-width="1920"
     inkscape:window-height="1009"
     inkscape:window-x="-8"
     inkscape:window-y="-8"
     inkscape:window-maximized="1"
     inkscape:current-layer="svg91" />
  <defs
     id="defs11">
    <style
       id="style1">.a,.aa,.ac,.ae,.af,.ah,.ak,.al,.am,.an,.aq,.at,.av,.f,.g,.i,.l,.m,.o,.q,.u,.v{fill:none;}.b{fill:#fff;}.c{clip-path:url(#a);}.d{fill:#d4eaf9;}.e{fill:#90c6eb;}.ac,.at,.f,.g,.l,.m{stroke:#86a7c0;}.ah,.ak,.al,.am,.an,.aq,.at,.av,.f,.l,.m,.o,.q,.u,.v{stroke-linecap:round;}.af,.at,.av,.f,.g,.i{stroke-miterlimit:10;}.ak,.al,.am,.f,.m{stroke-width:1.213px;}.aa,.ac,.ae,.ah,.an,.aq,.at,.av,.g,.i,.l,.o,.q,.u,.v{stroke-width:1.375px;}.h{clip-path:url(#d);}.av,.i,.o{stroke:#54738c;}.j{fill:#94b7d3;}.k{fill:#71a3c8;}.aa,.ac,.ae,.ah,.ak,.al,.am,.an,.aq,.l,.m,.o,.q,.u,.v{stroke-linejoin:round;}.n{clip-path:url(#f);}.p{clip-path:url(#g);}.q{stroke:#476073;}.r{clip-path:url(#i);}.s{clip-path:url(#j);}.t{fill:#4d4b6c;}.af,.u{stroke:#373535;}.ae,.v{stroke:#292929;}.w{clip-path:url(#l);}.x{fill:#4c4c6c;}.y{fill:#f3d37a;}.z{fill:#d5effc;}.aa{stroke:#4d6d85;}.ab{clip-path:url(#n);}.ad{clip-path:url(#o);}.af{stroke-width:1.537px;}.ag{fill:#373535;}.ah{stroke:#86a9c9;}.ai{fill:#95c7eb;}.aj{fill:#cb5959;}.ak,.an{stroke:#7d6538;}.al,.aq{stroke:#7c868f;}.am{stroke:#924142;}.ao{clip-path:url(#q);}.ap{clip-path:url(#r);}.ar{fill:#3c3c4c;}.as{fill:#9797a3;}.au{clip-path:url(#t);}</style>
    <clipPath
       id="a"
       transform="translate(0 -33.575)">
      <rect
         class="a"
         x="338.152"
         width="293.7"
         height="368.195"
         id="rect1" />
    </clipPath>
    <clipPath
       id="d"
       transform="translate(0 -33.575)">
      <path
         class="a"
         d="M544.057,142.069l-25.088,22.619c-10.387,7.422,11.5,16.4,11.5,16.4s28.391-21.877,33.027-26.482c-.57-13.034-7.99-15.223-13.937-15.794q-.388-.038-.736-.037c-3.46,0-4,2.611-4.762,3.3"
         id="path1" />
    </clipPath>
    <clipPath
       id="f"
       transform="translate(0 -33.575)">
      <path
         class="a"
         d="M469.674,245.492s-9.716,37.584-9.219,37.148c4.744-4.175,20.266-8.425,26.877,6.35,1.769-7.43,10.928-44.866,10.928-44.866s-9.712-5.433-18.009-5.434c-4.582,0-8.731,1.657-10.577,6.8"
         id="path2" />
    </clipPath>
    <clipPath
       id="g"
       transform="translate(0 -33.575)">
      <path
         class="a"
         d="M471.142,245.53l-.483-.388-3.389,11.466a145.744,145.744,0,0,0,28.4-2.511,95.826,95.826,0,0,0,1.751-11.709s-7.8-3.267-15.024-3.267c-4.857,0-9.455,1.475-11.255,6.409"
         id="path3" />
    </clipPath>
    <clipPath
       id="i"
       transform="translate(0 -33.575)">
      <path
         class="a"
         d="M518.39,239.468s24.92,29.232,29.824,35.088c-.689-16.172,15.1-19.147,21.211-17.534.64.169-24.853-29.108-24.853-29.108a9.516,9.516,0,0,0-6.743-2.879c-9.623,0-19.439,14.433-19.439,14.433"
         id="path4" />
    </clipPath>
    <clipPath
       id="j"
       transform="translate(0 -33.575)">
      <path
         class="a"
         d="M517.13,238.107s4.434,4.865,8.036,9.124a145.9,145.9,0,0,0,26.527-10.448l-8.158-8.742-.258.563a8.737,8.737,0,0,0-6.21-2.461c-9.158,0-19.937,11.964-19.937,11.964"
         id="path5" />
    </clipPath>
    <clipPath
       id="l"
       transform="translate(0 -33.575)">
      <path
         class="a"
         d="M467.41,219.844s-22.3,13.059-38.872,13.765c-8.839,13.186-1.663,29.734,6.253,30.669,16.273-2.291,33.657-16.394,33.657-16.394s21.876-28.443,3.3-28.447a26.2,26.2,0,0,0-4.336.407"
         id="path6" />
    </clipPath>
    <clipPath
       id="n"
       transform="translate(0 -33.575)">
      <path
         class="a"
         d="M518.269,190.862c-8.358.87-16.084,2.19-23.773,5.095-16.43,6.207-19.706,17.5-18.854,32.773a211,211,0,0,0,3.038,22.776c10.4.107,28.275-4.106,33.6-5.769,6.9-2.156,22.678-6.351,28.034-9.542a26.64,26.64,0,0,0,4.37-2.946c-.515-4.933-2.185-19.94-4.654-26.242-2.686-6.862-6.294-16.3-18.854-16.3a28.1,28.1,0,0,0-2.907.156"
         id="path7" />
    </clipPath>
    <clipPath
       id="o"
       transform="translate(0 -33.575)">
      <path
         class="a"
         d="M449.586,212.294c-1.3.942-2.609.909-2.153,4.2,1.214,8.743,1.642,12.345,4.888,19.624.562,1.263-.344,2.512,4.745,2.981,2.725-.22,2.581-1.4,3.853-3.624,1.179-2.064.21-8.43-1.323-13.407-1.631-5.3-3.393-10.988-6.926-10.989a5.357,5.357,0,0,0-3.084,1.217m-5.219-21.778c-1,.132-1.5.388-1.611,1.391a16.526,16.526,0,0,0,.468,5.995c.983,3.029,2.2,4.946,3.567,9.137.313.956.712,1.314,1.716,1.242,2.1-.151,4.674-1.828,3.749-8.261-1.012-7.019-4.329-9.547-7.235-9.547a5.059,5.059,0,0,0-.654.043M463.7,90.283c-12.357,3.752-32.8,8.312-36.681,10.806-4.987,3.2-8.74,6.935-8.233,13.449.336,4.327,11.664,31.648,17.815,51.944a2.211,2.211,0,0,0,2.44,1.557c10.647-1.63,22.308-9.107,30.915-16.287,11.289-9.417,15.391-32.55,13.013-41.531C478.81,94.5,468.6,91.064,465.95,90.051a1.176,1.176,0,0,0-.389-.048,8.529,8.529,0,0,0-1.859.28m35.552-10.012c-.682.175-1.337-.139-1.836,1.217-4.129,11.207-.319,23.863,1.041,29.235,2.451,9.686,6.907,20.467,21.1,29.74a37.876,37.876,0,0,0,13.249,5.137,2.205,2.205,0,0,0,2.487-2.758c-4.834-17.788-13.855-48.1-16-54.15-2.116-5.965-5.2-7.614-10.293-10.06a2.217,2.217,0,0,0-.9-.137c-2.137,0-6.716,1.232-8.845,1.776"
         id="path8" />
    </clipPath>
    <clipPath
       id="q"
       transform="translate(0 -33.575)">
      <path
         class="a"
         d="M493.235,111.451l4.151,18.537s.59,7.166-8.955,14.376-5.215,13.665-5.215,13.665,45.8-6.57,46.056-6.733-8.443-39.2-8.443-39.2l-5.35-5.881Z"
         id="path9" />
    </clipPath>
    <clipPath
       id="r"
       transform="translate(0 -33.575)">
      <path
         class="a"
         d="M517.683,104.929c-6.91.135-6.065,2.363-8.944,5.554-3.918,4.342-2.3,21.551-9.059,27.544-3.923,3.481-9.366,8.917-13.207,12.559-3.053,2.895,6.251,5.16,17.776,3.4,7.048-1.076,9.642-27.964,8.9-30.611-1.161-4.121.426-12.7,2.952-15.178,3.088-3.03,2.885-3.271,1.846-3.271-.083,0-.17,0-.262,0"
         id="path10" />
    </clipPath>
    <clipPath
       id="t"
       transform="translate(0 -33.575)">
      <path
         class="a"
         d="M419.141,159.694c3.5,4.282,4.781,14.842-6.565,19.2,5.926,2.751,41.816,14.341,41.816,14.341s17.522-15.887,5.229-19.331l-37.952-15.44a8.006,8.006,0,0,0-2.452-.578c-.816,0-1.229.4-.076,1.813"
         id="path11" />
    </clipPath>
  </defs>
  <title
     id="title11">BlueyTrademarkLogo_White</title>
  <g
     id="g97"
     transform="translate(0.00351536,-14.255886)">
    <g
       id="g91"
       transform="translate(5.6375859,-30.715501)">
      <path
         class="b"
         d="m 352.52205,263.9779 c -1.265,0 -2.529,0 -3.793,0 a 9.147,9.147 0 0 1 -1.952,-0.142 5.386,5.386 0 0 0 -1.042,-0.058 c -1,-0.018 -2,-0.026 -3.008,-0.043 a 10.653,10.653 0 0 1 -1.95,-0.158 8.983,8.983 0 0 0 -1.434,-0.083 12.689,12.689 0 0 1 -2.6,-0.206 3.819,3.819 0 0 0 -0.781,-0.053 9.363,9.363 0 0 1 -2.077,-0.2 3.042,3.042 0 0 0 -0.65,-0.055 8.8,8.8 0 0 1 -1.946,-0.2 3.73,3.73 0 0 0 -0.78,-0.066 5.957,5.957 0 0 1 -1.424,-0.175 2.23,2.23 0 0 0 -0.516,-0.072 c -1.176,-0.066 -2.329,-0.3 -3.49,-0.47 -0.688,-0.1 -1.378,-0.189 -2.067,-0.295 -2.8,-0.428 -5.573,-0.948 -8.341,-1.53 -2,-0.421 -4,-0.869 -5.979,-1.384 -1.559,-0.406 -3.122,-0.8 -4.656,-1.3 -1.326,-0.43 -2.667,-0.815 -3.986,-1.263 -2.227,-0.757 -4.433,-1.573 -6.6,-2.5 -1.723,-0.737 -3.444,-1.477 -5.111,-2.335 a 61.5,61.5 0 0 1 -7.832,-4.716 41.818,41.818 0 0 1 -3.382,-2.67 c -0.782,-0.695 -1.566,-1.384 -2.3,-2.127 a 31.717,31.717 0 0 1 -4.872,-6.286 25.875,25.875 0 0 1 -3.237,-8.646 c -0.166,-0.942 -0.314,-1.887 -0.458,-2.833 a 5.827,5.827 0 0 1 -0.045,-0.783 q -0.015,-0.981 -0.015,-1.961 a 16.462,16.462 0 0 1 2.294,-8.473 10.114,10.114 0 0 1 1.051,-1.494 17.533,17.533 0 0 1 4.116,-3.595 20.331,20.331 0 0 1 5.925,-2.354 18.188,18.188 0 0 1 4.652,-0.592 c 0.653,0.015 1.308,0.017 1.961,0 a 18.316,18.316 0 0 1 3.885,0.437 46.766,46.766 0 0 1 7.053,1.917 56.343,56.343 0 0 1 8.434,3.841 c 3.016,1.673 5.894,3.557 8.736,5.5 1.941,1.327 3.836,2.723 5.756,4.081 q 1.707,1.207 3.428,2.4 c 1.54,1.066 3.089,2.118 4.672,3.12 1.473,0.933 2.953,1.853 4.486,2.685 0.957,0.52 1.9,1.06 2.879,1.544 a 57.6,57.6 0 0 0 8.969,3.591 48.866,48.866 0 0 0 5.2,1.247 c 0.983,0.182 1.973,0.333 2.962,0.483 0.3,0.045 0.609,0.033 0.912,0.061 0.476,0.045 0.951,0.107 1.426,0.153 0.39,0.037 0.781,0.08 1.172,0.088 3.967,0.084 7.934,0.067 11.9,-0.008 a 3.628,3.628 0 0 0 0.782,-0.043 12.9,12.9 0 0 1 2.6,-0.209 c 0.131,0 0.263,0 0.392,-0.015 0.561,-0.071 1.119,-0.167 1.682,-0.217 a 8.167,8.167 0 0 0 1.685,-0.186 1.272,1.272 0 0 1 0.387,-0.056 20.44,20.44 0 0 0 2.983,-0.331 c 1.381,-0.164 2.748,-0.436 4.124,-0.644 1.119,-0.169 2.227,-0.4 3.335,-0.622 a 46.13,46.13 0 0 0 7.516,-2.191 64.4,64.4 0 0 0 7.032,-3.158 c 1.5,-0.8 3,-1.587 4.428,-2.521 0.729,-0.478 1.47,-0.937 2.207,-1.4 a 59.95,59.95 0 0 0 5.184,-3.755 28.866,28.866 0 0 0 2.678,-2.294 c 0.367,-0.37 0.8,-0.675 1.175,-1.037 0.69,-0.664 1.372,-1.339 2.036,-2.029 0.422,-0.439 0.8,-0.916 1.208,-1.373 a 34.066,34.066 0 0 0 2.669,-3.382 q 2.978,-4.379 5.78,-8.87 c 1.2,-1.925 2.344,-3.878 3.481,-5.837 1.18,-2.034 2.264,-4.125 3.314,-6.232 a 85.476,85.476 0 0 0 3.665,-8.237 c 0.716,-1.918 1.361,-3.864 1.955,-5.823 0.77,-2.542 1.414,-5.122 2.219,-7.654 a 1.271,1.271 0 0 0 0.067,-0.38 0.3,0.3 0 0 0 -0.1,-0.225 c -0.344,-0.187 -0.69,-0.372 -1.049,-0.525 -0.922,-0.392 -1.846,-0.779 -2.778,-1.147 -1.544,-0.609 -3,-1.39 -4.5,-2.113 a 48.354,48.354 0 0 1 -5.994,-3.464 c -1.406,-0.951 -2.768,-1.971 -4.105,-3.017 a 47.571,47.571 0 0 1 -5.49,-5.22 c -1.188,-1.389 -2.35,-2.8 -3.421,-4.286 a 50.648,50.648 0 0 1 -4.465,-7.52 56.845,56.845 0 0 1 -2.91,-7.275 67.14,67.14 0 0 1 -2.234,-8.725 c -0.242,-1.326 -0.545,-2.647 -0.686,-3.985 a 25.292,25.292 0 0 1 -0.353,-3.37401 1.931,1.931 0 0 0 -0.036,-0.521 13.764,13.764 0 0 1 -0.223,-2.991 9.961,9.961 0 0 0 -0.146,-1.822 5.077,5.077 0 0 1 -0.066,-1.041 c -0.006,-1.438 0,-2.877 0,-4.316 a 3.766,3.766 0 0 1 0.03,-0.782 18.312,18.312 0 0 0 0.2,-3.257 7.506,7.506 0 0 1 0.167,-1.818 1.276,1.276 0 0 0 0.055,-0.386997 23.235,23.235 0 0 1 0.322,-3.246 c 0.1,-0.95 0.324,-1.886 0.445,-2.835 a 40.669,40.669 0 0 1 1.12,-5.231 16.341,16.341 0 0 1 1.409,-3.789 19.042,19.042 0 0 1 4.3,-5.384 10.027,10.027 0 0 1 4.016,-2.111 19.746,19.746 0 0 1 2.188,-0.354 2.227,2.227 0 0 1 0.652,0.01 15.228,15.228 0 0 1 3.429,0.783 15.879,15.879 0 0 1 4.162,2.42 20.143,20.143 0 0 1 2.032,1.839 20.9,20.9 0 0 1 3.215,4.428 19.1,19.1 0 0 1 1.567,3.588 31.789,31.789 0 0 1 0.769,3.3 c 0.26,1.5 0.386,3.02 0.679,4.515 0.059,0.3 0.046,0.608 0.079,0.91 0.077,0.692 0.181,1.381 0.239,2.073997 a 10.541,10.541 0 0 0 0.192,1.947 2.912,2.912 0 0 1 0.066,0.649 10.645,10.645 0 0 0 0.237,2.466 c 0.023,1.09 0.171,2.168 0.278,3.25 0.128,1.3 0.3,2.591 0.482,3.882 0.124,0.861 0.222,1.726 0.344,2.587 0.068,0.474 0.162,0.943 0.246,1.414 0.446,2.48401 0.917,4.96201 1.473,7.42501 a 56.058,56.058 0 0 0 1.58,5.658 19.432,19.432 0 0 0 1.672,3.542 6.851,6.851 0 0 0 3.213,2.958 2.344,2.344 0 0 0 0.879,0.231 0.784,0.784 0 0 0 0.689,-0.3 c 0.315,-0.417 0.638,-0.83 0.929,-1.263 1.508,-2.242 3.029,-4.475 4.5,-6.742 0.782,-1.205 1.463,-2.474 2.2,-3.708 a 34.384,34.384 0 0 0 1.657,-3.115 c 0.829,-1.776 1.626,-3.56601 2.321,-5.40001 a 82.5,82.5 0 0 0 2.948,-10.02 53.888,53.888 0 0 1 3.089,-9.287997 54.865,54.865 0 0 1 3.079,-6.058 c 0.157,-0.261 0.3,-0.532 0.439,-0.8 a 13.582,13.582 0 0 1 2.159,-2.941 12,12 0 0 1 1.685,-1.443 16.2,16.2 0 0 1 6.474,-2.99 4.941,4.941 0 0 1 0.907,-0.1 c 0.828,-0.017 1.656,-0.033 2.484,-0.012 a 7.384,7.384 0 0 1 3.9,1.343 9.407,9.407 0 0 1 3.117,3.63 18.773,18.773 0 0 1 1.743,5.317 c 0.2,1.073 0.2,2.168 0.436,3.233 a 4.194,4.194 0 0 1 0.045,0.912 c 0,1.57 -0.02,3.139997 0,4.708997 0.012,0.749 -0.215,1.464 -0.234,2.206 a 8.45,8.45 0 0 1 -0.2,2.198 2.07,2.07 0 0 0 -0.049,0.388 59.6,59.6 0 0 1 -1.192,7.2 c -0.393,1.652 -0.762,3.31 -1.2,4.95001 -0.56,2.1 -1.164,4.2 -1.776,6.285 -0.721,2.467 -1.451,4.931 -2.214,7.384 -0.595,1.914 -1.239,3.813 -1.874,5.714 -0.993,2.976 -1.98,5.955 -3,8.922 -0.736,2.142 -1.521,4.268 -2.282,6.4 -0.484,1.354 -0.957,2.712 -1.45,4.062 q -0.942,2.578 -1.91,5.146 -1.23,3.238 -2.489,6.464 c -0.552,1.421 -1.12,2.836 -1.68,4.254 -0.928,2.35 -1.837,4.708 -2.789,7.048 -0.821,2.017 -1.628,4.041 -2.537,6.022 -0.4,0.871 -0.756,1.761 -1.133,2.642 -0.068,0.16 -0.135,0.322 -0.207,0.48 q -2.892,6.372 -6.161,12.56 c -1.468,2.77 -3.029,5.492 -4.644,8.183 -1.729,2.879 -3.588,5.671 -5.478,8.442 -1.3,1.907 -2.644,3.785 -4.109,5.573 -0.855,1.044 -1.675,2.117 -2.511,3.176 -0.108,0.136 -0.222,0.269 -0.338,0.4 -0.838,0.945 -1.7,1.869 -2.512,2.836 -1.994,2.377 -4.28,4.467 -6.466,6.655 -1.07,0.826 -2.01,1.8 -3.057,2.656 -1.047,0.856 -2.079,1.721 -3.151,2.542 a 77.45,77.45 0 0 1 -7.569,5.127 c -2.625,1.556 -5.281,3.057 -8.035,4.372 -2.4,1.144 -4.816,2.249 -7.29,3.224 -1.9,0.75 -3.8,1.527 -5.727,2.218 -2.3,0.825 -4.6,1.624 -6.953,2.285 -1.3,0.365 -2.588,0.773 -3.9,1.088 -2.03,0.487 -4.067,0.952 -6.136,1.255 -1.42,0.208 -2.826,0.53 -4.251,0.676 a 29.638,29.638 0 0 1 -3.243,0.358 2.38,2.38 0 0 0 -0.647,0.072 7.433,7.433 0 0 1 -1.687,0.176 3.876,3.876 0 0 0 -0.78,0.058 10.759,10.759 0 0 1 -2.34,0.2 9.258,9.258 0 0 0 -1.949,0.175 4.31,4.31 0 0 1 -0.911,0.06 c -0.916,0.019 -1.831,0.029 -2.747,0.045 a 10.4,10.4 0 0 0 -2.082,0.15 4.946,4.946 0 0 1 -1.042,0.054 c -1.4,0 -2.79,0 -4.185,0 z"
         id="path12" />
      <path
         class="b"
         d="m 334.72405,128.0179 c 0,1.264 0.006,2.528 0,3.792 a 12.086,12.086 0 0 1 -0.159,2.212 10.421,10.421 0 0 0 -0.077,1.565 20.479,20.479 0 0 1 -0.2,3 13.235,13.235 0 0 0 -0.079,1.956 13.006,13.006 0 0 1 -0.167,2.081 10.263,10.263 0 0 0 -0.085,1.563 8.531,8.531 0 0 1 -0.193,2.077 2.294,2.294 0 0 0 -0.058,0.519 c -0.052,1.133 -0.3,2.239 -0.457,3.358 -0.291,2.071 -0.752,4.109 -1.17,6.154 -0.313,1.534 -0.712,3.053 -1.125,4.564 -0.736,2.689 -1.534,5.36 -2.475,7.985 -0.81,2.256 -1.67,4.491 -2.7,6.657 -0.244,0.511 -0.443,1.043 -0.695,1.55 a 46.417,46.417 0 0 1 -4.952,7.981 15.712,15.712 0 0 1 -1.724,1.955 24.052,24.052 0 0 1 -3.909,3.043 23.424,23.424 0 0 1 -7.665,2.873 9.921,9.921 0 0 1 -1.678,0.233 1.4,1.4 0 0 0 -0.26,0.021 27.528,27.528 0 0 1 -5.474,0.194 c -1.289,-0.2 -2.591,-0.3 -3.875,-0.541 a 36.617,36.617 0 0 1 -6.385,-1.873 33.227,33.227 0 0 1 -5.5,-2.722 c -1.374,-0.849 -2.683,-1.784 -3.965,-2.759 a 2.535,2.535 0 0 1 -0.208,-0.159 46.922,46.922 0 0 1 -4.2,-4.3 c -0.775,-0.941 -1.542,-1.886 -2.268,-2.867 q -1.947,-2.629 -3.645,-5.422 a 90.319,90.319 0 0 1 -4.415,-8.009 c -1.376,-2.866 -2.692,-5.758 -3.8,-8.744 q -1.209,-3.25 -2.152,-6.579 a 25.809,25.809 0 0 1 -0.674,-3.191 c -0.1,-0.645 -0.236,-1.283 -0.369,-1.922 -0.384,-1.831 -0.8,-3.656 -1.156,-5.492 -0.368,-1.878 -0.72,-3.76 -1.012,-5.65 -0.139,-0.9 -0.313,-1.8 -0.372,-2.715 -0.065,-1 -0.269,-1.98 -0.407,-2.97 a 5.893,5.893 0 0 1 -0.056,-0.651 11,11 0 0 0 -0.206,-2.077 4.679,4.679 0 0 1 -0.053,-0.912 c -0.019,-0.784 -0.018,-1.569 -0.048,-2.353 -0.018,-0.477 -0.073,-0.953 -0.121,-1.429 a 15.369,15.369 0 0 1 0,-3.39001 16.825,16.825 0 0 0 0.124,-1.691 c 0.012,-0.567 0.008,-1.134 0.037,-1.7 0.023,-0.434 0.085,-0.865 0.134,-1.3 0.015,-0.129 0.064,-0.257 0.067,-0.386 a 23.274,23.274 0 0 1 0.282,-2.593 q 0.212,-1.552 0.525,-3.085 a 46.112,46.112 0 0 1 1.637,-5.910997 32.537,32.537 0 0 1 1.671,-3.971 10.437,10.437 0 0 1 1.808,-2.546 26.666,26.666 0 0 1 5.327,-4.185 25.788,25.788 0 0 1 5.711,-2.554 17.051,17.051 0 0 1 2.8,-0.611 12.508,12.508 0 0 1 2.466,-0.222 10.908,10.908 0 0 1 8.6,4.281 16.828,16.828 0 0 1 2.438,4.454 29.271,29.271 0 0 1 1.328,4.911 15.531,15.531 0 0 1 0.283,3.244997 q -0.019,2.419 -0.046,4.838 a 4.25,4.25 0 0 1 -0.054,0.912 11.644,11.644 0 0 0 -0.2,2.34 7.037,7.037 0 0 1 -0.154,1.557 3.878,3.878 0 0 0 -0.084,0.778 11.783,11.783 0 0 1 -0.216,2.338 6.079,6.079 0 0 0 -0.063,0.911 c -0.043,0.476 -0.1,0.951 -0.146,1.427 -0.046,0.47601 -0.087,0.95301 -0.112,1.43101 a 12.382,12.382 0 0 1 -0.171,1.818 9.076,9.076 0 0 0 -0.095,1.432 12.351,12.351 0 0 1 -0.185,2.341 4.446,4.446 0 0 0 -0.053,0.911 c -0.017,0.872 -0.026,1.744 -0.042,2.615 a 10.6,10.6 0 0 1 -0.16,2.212 4.129,4.129 0 0 0 -0.05,0.912 q -0.009,5.492 -0.009,10.984 a 6.653,6.653 0 0 0 0.137,1.559 3.546,3.546 0 0 1 0.084,0.908 10.635,10.635 0 0 0 0.6,3.33 6.652,6.652 0 0 0 1.494,2.578 7.49,7.49 0 0 0 3.588,2.284 8.333,8.333 0 0 0 8.548,-2.114 5.751,5.751 0 0 0 1.38,-2.344 44.991,44.991 0 0 0 1.237,-4.4 21.477,21.477 0 0 0 0.451,-2.963 1.877,1.877 0 0 1 0.03,-0.391 12.668,12.668 0 0 0 0.214,-3.121 c 0.008,-1.439 -0.007,-2.877 -0.019,-4.315 a 4.942,4.942 0 0 0 -0.057,-1.042 13.135,13.135 0 0 1 -0.2,-2.21 c -0.023,-0.433 -0.086,-0.865 -0.134,-1.3 -0.034,-0.3 -0.073,-0.6 -0.111,-0.907 q -0.081,-0.647 -0.165,-1.293 c -0.023,-0.172 -0.06,-0.343 -0.075,-0.517 -0.147,-1.691 -0.458,-3.358 -0.724,-5.033 a 21.862,21.862 0 0 1 -0.374,-3.10601 14.737,14.737 0 0 1 1.388,-6.2 15.093,15.093 0 0 1 3.742,-5.142 13.619,13.619 0 0 1 5.841,-3.066 c 0.955,-0.064 1.886,-0.342 2.851,-0.317 0.174,0 0.35,-0.008 0.522,0.013 a 20.307,20.307 0 0 1 5.319,1.255 22.448,22.448 0 0 1 3.6,1.845 14.085,14.085 0 0 1 3.954,3.755 18.783,18.783 0 0 1 2.632,5.943 c 0.349,1.262 0.484,2.56401 0.739,3.84401 a 5.341,5.341 0 0 1 0.05,0.782 4.943,4.943 0 0 0 0.041,0.782 23.88,23.88 0 0 1 0.228,4.43 c 0.015,0.653 0,1.308 0,1.961 z"
         id="path13" />
      <path
         class="b"
         d="m 335.54305,187.4189 c 0,-1.395 0,-2.79 0,-4.185 a 9.957,9.957 0 0 1 0.158,-2.212 4.524,4.524 0 0 0 0.052,-0.912 c 0.016,-0.871 0.023,-1.743 0.04,-2.615 a 10.39,10.39 0 0 1 0.171,-2.211 4.6,4.6 0 0 0 0.057,-0.912 c 0.018,-0.74 0.027,-1.482 0.043,-2.222 a 3.991,3.991 0 0 1 0.034,-0.783 17.237,17.237 0 0 0 0.218,-3.255 9.632,9.632 0 0 1 0.138,-1.56 8.643,8.643 0 0 0 0.1,-1.3 14.843,14.843 0 0 1 0.2,-2.6 7.617,7.617 0 0 0 0.072,-1.3 6.63,6.63 0 0 1 0.153,-1.557 1.318,1.318 0 0 0 0.065,-0.386 31.83,31.83 0 0 1 0.322,-3.377 c 0.06,-0.823 0.192,-1.642 0.315,-2.459 0.129,-0.86 0.312,-1.712 0.423,-2.574 0.128,-1 0.356,-1.969 0.563,-2.948 a 45.931,45.931 0 0 1 1.78,-6.414 41.655,41.655 0 0 1 2.856,-6.3 43.646,43.646 0 0 1 3.95,-5.675 28.65,28.65 0 0 1 1.917,-2.14 c 1.1,-1.119 2.214,-2.225 3.323,-3.335 a 33.162,33.162 0 0 1 6.39,-4.952 29.776,29.776 0 0 1 5.175,-2.49201 36.252,36.252 0 0 1 4.888,-1.417 c 0.85,-0.18 1.713,-0.294 2.572,-0.432 a 5.733,5.733 0 0 0 0.648,-0.075 7.824,7.824 0 0 1 1.946,-0.194 9.911,9.911 0 0 0 1.95,-0.166 4.244,4.244 0 0 1 0.911,-0.055 c 0.741,-0.007 1.482,0 2.223,0 a 5.869,5.869 0 0 1 1.429,0.127 3.272,3.272 0 0 0 0.647,0.08 15.8,15.8 0 0 1 6.609,1.87 9.554,9.554 0 0 1 2.422,1.76 12.832,12.832 0 0 1 2.04,2.37201 15.164,15.164 0 0 1 2.075,5.867 23.266,23.266 0 0 1 0.212,3.384 9.4,9.4 0 0 1 -0.154,1.687 c -0.139,0.725 -0.18,1.465 -0.349,2.19 a 17.858,17.858 0 0 1 -1.145,3.467 13.444,13.444 0 0 1 -1.095,1.93 15.008,15.008 0 0 1 -1.636,2.034 20.086,20.086 0 0 1 -3.881,3.283 28.873,28.873 0 0 1 -3.8,2.033 33.879,33.879 0 0 1 -5.195,1.745 c -0.8,0.192 -1.619,0.322 -2.435,0.455 -1.039,0.168 -2.087,0.14 -3.118,0.276 -1.172,0.155 -2.349,0.121 -3.515,0.239 a 24.84,24.84 0 0 0 -6.389,1.236 17.809,17.809 0 0 0 -3.595,1.848 4.92,4.92 0 0 0 -2.059,3.072 4.2,4.2 0 0 0 -0.025,1.819 5.291,5.291 0 0 0 1.869,3.21 3.31,3.31 0 0 0 2.025,0.818 21.107,21.107 0 0 0 4.691,-0.194 3.432,3.432 0 0 1 0.65,-0.058 c 1.133,-0.015 2.266,-0.034 3.4,-0.028 a 6.818,6.818 0 0 1 2.891,0.72 5.6,5.6 0 0 1 2.971,3.627 7.611,7.611 0 0 1 0.243,3.236 4.693,4.693 0 0 1 -1.277,2.808 25.908,25.908 0 0 1 -2.5,2.3 c -1.894,1.475 -3.909,2.771 -5.9,4.1 -0.69,0.458 -1.378,0.919 -2.071,1.371 a 7.3,7.3 0 0 0 -2.96,3.878 6.554,6.554 0 0 0 -0.237,3.857 8.775,8.775 0 0 0 0.785,2.206 2.213,2.213 0 0 0 0.491,0.6 6.3,6.3 0 0 0 3.6,1.4 c 0.607,0.042 1.22,0.025 1.83,0.018 a 7.151,7.151 0 0 0 3.692,-1.165 3.416,3.416 0 0 0 0.606,-0.5 38.325,38.325 0 0 0 3.683,-3.887 c 0.053,-0.069 0.114,-0.132 0.173,-0.2 0.929,-1.038 1.891,-2.049 2.777,-3.124 0.834,-1.011 1.742,-1.947 2.639,-2.9 0.268,-0.284 0.477,-0.627 0.755,-0.9 a 31.982,31.982 0 0 1 3.93,-3.433 11.656,11.656 0 0 1 5.186,-2.011 24,24 0 0 1 2.466,-0.222 16.55,16.55 0 0 1 3.373,0.346 19.017,19.017 0 0 1 5.768,2.029 10.872,10.872 0 0 1 3.212,2.639 9.185,9.185 0 0 1 1.363,2.521 14.921,14.921 0 0 1 0.75,2.637 4.76,4.76 0 0 1 0.087,0.908 c 0.007,1.439 -0.008,2.877 0,4.315 a 9.833,9.833 0 0 1 -0.321,2.062 24.676,24.676 0 0 1 -2.2,6.409 21.054,21.054 0 0 1 -4.052,5.577 15.355,15.355 0 0 1 -1.845,1.658 3.649,3.649 0 0 0 -0.389,0.349 c -1.4,1.308 -2.9,2.5 -4.405,3.689 -1.468,1.161 -2.924,2.339 -4.4,3.491 -1.03,0.805 -2.081,1.581 -3.125,2.366 -1.984,1.493 -3.963,2.991 -6.063,4.323 a 51.117,51.117 0 0 1 -5.689,3.206 33.975,33.975 0 0 1 -6.761,2.4 18.225,18.225 0 0 1 -3.859,0.638 14.924,14.924 0 0 1 -3.512,0.232 20.087,20.087 0 0 1 -8.706,-2.012 26.979,26.979 0 0 1 -6.18,-4.111 c -0.622,-0.546 -1.251,-1.08 -1.85,-1.653 a 23.394,23.394 0 0 1 -4.308,-5.719 c -0.355,-0.646 -0.624,-1.342 -0.92,-2.021 a 30.1,30.1 0 0 1 -1.753,-5.6 c -0.316,-1.443 -0.525,-2.91 -0.772,-4.368 a 7.535,7.535 0 0 1 -0.059,-0.782 4.381,4.381 0 0 0 -0.055,-0.781 11.942,11.942 0 0 1 -0.223,-2.6 4.668,4.668 0 0 0 -0.058,-0.911 9.664,9.664 0 0 1 -0.166,-2.211 c -0.006,-1.439 0,-2.877 0,-4.316 z"
         id="path14" />
      <path
         class="b"
         d="m 230.78505,215.8669 c -0.828,0 -1.656,0.006 -2.484,0 a 6.573,6.573 0 0 1 -1.816,-0.177 1.785,1.785 0 0 0 -0.388,-0.05 32.017,32.017 0 0 1 -6.161,-1.076 38.376,38.376 0 0 1 -4.445,-1.522 27.088,27.088 0 0 1 -4.782,-2.67 12.974,12.974 0 0 1 -1.943,-1.539 c -0.215,-0.214 -0.466,-0.392 -0.7,-0.589 a 3.432,3.432 0 0 1 -0.488,-0.432 c -0.729,-0.923 -1.58,-1.738 -2.278,-2.69 a 32.257,32.257 0 0 1 -2.085,-3.314 21.131,21.131 0 0 1 -0.932,-2.014 30.952,30.952 0 0 1 -1.819,-5.718 19.979,19.979 0 0 1 -0.471,-2.96 c -0.024,-0.389 -0.159,-0.771 -0.173,-1.159 -0.042,-1.133 -0.343,-2.239 -0.341,-3.376 a 3.063,3.063 0 0 0 -0.065,-0.779 8.741,8.741 0 0 1 -0.195,-1.947 3.815,3.815 0 0 0 -0.049,-0.781 18.584,18.584 0 0 1 -0.237,-2.6 c -0.132,-1.213 -0.257,-2.423 -0.278,-3.643 a 11.376,11.376 0 0 1 -0.229,-2.6 3.122,3.122 0 0 0 -0.048,-0.651 12.328,12.328 0 0 1 -0.207,-2.6 9.416,9.416 0 0 0 -0.143,-1.559 8.259,8.259 0 0 1 -0.1,-1.3 15.994,15.994 0 0 0 -0.2,-2.6 8.642,8.642 0 0 1 -0.07,-1.434 11.767,11.767 0 0 0 -0.2,-2.47 4.043,4.043 0 0 1 -0.056,-0.781 7.654,7.654 0 0 0 -0.181,-1.685 3.731,3.731 0 0 1 -0.08,-0.779 7.475,7.475 0 0 0 -0.18,-1.554 3.951,3.951 0 0 1 -0.083,-0.778 7.993,7.993 0 0 0 -0.175,-1.555 4.646,4.646 0 0 1 -0.092,-0.908 7.715,7.715 0 0 0 -0.164,-1.426 5.157,5.157 0 0 1 -0.095,-0.907 8.1,8.1 0 0 0 -0.2,-1.815 2.744,2.744 0 0 1 -0.061,-0.649 12.4,12.4 0 0 0 -0.2,-2.077 8.293,8.293 0 0 1 -0.075,-1.3 11.524,11.524 0 0 0 -0.169,-1.95 7.7,7.7 0 0 1 -0.085,-1.3 17.691,17.691 0 0 0 -0.209,-3.125 4.322,4.322 0 0 1 -0.037,-0.912 q -0.007,-4.185 -0.007,-8.368 a 6.3,6.3 0 0 1 0.149,-1.688 1.311,1.311 0 0 0 0.052,-0.388 30.573,30.573 0 0 1 0.325,-3.638 c 0.041,-0.474 0.158,-0.943 0.242,-1.414 a 23.376,23.376 0 0 1 0.854,-3.416 15.553,15.553 0 0 1 3,-5.16601 c 0.2,-0.232 0.392,-0.467 0.59,-0.7 a 7.315,7.315 0 0 1 0.6,-0.687 c 0.777,-0.7 1.529,-1.434 2.363,-2.057 a 23.184,23.184 0 0 1 7.647,-3.886 17.359,17.359 0 0 1 4.626,-0.733 c 0.784,0 1.569,0 2.353,0 a 20.254,20.254 0 0 1 7.271,1.4 16.38,16.38 0 0 1 8.576,7.105 23.132,23.132 0 0 1 2.643,6.78801 c 0.27,1.1 0.451,2.213 0.611,3.335 a 26.181,26.181 0 0 1 0.231,2.86 4.4,4.4 0 0 0 0.039,0.651 32.13,32.13 0 0 1 0.156,5.217 31.174,31.174 0 0 0 -0.245,4.561 3.881,3.881 0 0 1 -0.057,0.78 10.318,10.318 0 0 0 -0.18,2.21 14.853,14.853 0 0 1 -0.183,2.341 11.632,11.632 0 0 0 -0.084,1.695 10.7,10.7 0 0 1 -0.157,1.819 7.917,7.917 0 0 0 -0.092,1.3 12.728,12.728 0 0 1 -0.185,2.21 7.5,7.5 0 0 0 -0.078,1.3 11.819,11.819 0 0 1 -0.18,2.079 7.707,7.707 0 0 0 -0.082,1.3 12.438,12.438 0 0 1 -0.178,2.08 8.609,8.609 0 0 0 -0.088,1.432 11.115,11.115 0 0 1 -0.176,1.949 7.587,7.587 0 0 0 -0.085,1.3 12.119,12.119 0 0 1 -0.166,1.819 10.519,10.519 0 0 0 -0.1,1.562 8.689,8.689 0 0 1 -0.172,1.818 3.8,3.8 0 0 0 -0.073,0.779 13.348,13.348 0 0 1 -0.222,2.6 4.594,4.594 0 0 0 -0.05,0.912 10.525,10.525 0 0 1 -0.19,2.078 6.759,6.759 0 0 0 -0.074,1.041 q -0.067,0.977 -0.142,1.952 a 0.252,0.252 0 0 0 0.347,0.251 c 0.2,-0.091 0.4,-0.181 0.59,-0.278 0.858,-0.428 1.714,-0.861 2.572,-1.288 a 28.118,28.118 0 0 1 6.021,-2.141 19.438,19.438 0 0 1 5.3,-0.613 11.806,11.806 0 0 1 6.491,2.095 7.633,7.633 0 0 1 0.807,0.662 c 0.415,0.385 0.816,0.786 1.216,1.188 a 13.352,13.352 0 0 1 3.183,5.189 14.635,14.635 0 0 1 0.83,5 c -0.006,0.348 -0.008,0.7 0,1.046 a 16.781,16.781 0 0 1 -0.471,3.877 31.565,31.565 0 0 1 -2.584,7.241 34.04,34.04 0 0 1 -3.587,5.757 c -0.211,0.275 -0.448,0.533 -0.685,0.788 a 32.153,32.153 0 0 1 -5.018,4.364 42.528,42.528 0 0 1 -5.81,3.506 31.77,31.77 0 0 1 -7.366,2.625 14.268,14.268 0 0 1 -3.365,0.389 c -0.7,-0.018 -1.4,0 -2.092,0 z"
         id="path15" />
      <path
         class="b"
         d="m 191.57505,177.0119 c -0.231,-1.024 -0.231,-2.073 -0.416,-3.1 a 43.067,43.067 0 0 0 -1,-4.455 38.137,38.137 0 0 0 -4,-9.063 33.043,33.043 0 0 0 -4.764,-6.2 c -0.8,-0.807 -1.61,-1.6 -2.411,-2.4 a 34.571,34.571 0 0 0 -4.016,-3.337 39.062,39.062 0 0 0 -6.929,-4.18 c -0.119,-0.054 -0.235,-0.113 -0.353,-0.17 a 29.957,29.957 0 0 0 -7.8,-2.561 c -0.385,-0.068 -0.764,-0.174 -1.144,-0.269 a 0.449,0.449 0 0 1 -0.3,-0.515 c 0.03,-0.17 0.069,-0.34 0.107,-0.509 0.282,-1.231 0.628,-2.45 0.832,-3.693 a 61.887,61.887 0 0 0 0.894,-6.2 c 0.011,-0.173 0.064,-0.342 0.084,-0.515 0.051,-0.432 0.112,-0.863 0.136,-1.3 a 12.06,12.06 0 0 1 0.2,-2.21 3.437,3.437 0 0 0 0.051,-0.781 q 0.006,-3.6 0,-7.192 c 0,-0.34701 -0.056,-0.69401 -0.091,-1.04001 -0.044,-0.432 -0.1,-0.864 -0.139,-1.3 -0.031,-0.347 -0.014,-0.7 -0.074,-1.043 -0.277,-1.585 -0.533,-3.174 -0.963,-4.73 a 24.232,24.232 0 0 0 -4.479,-8.926 22.028,22.028 0 0 0 -4.591,-4.236997 31.346,31.346 0 0 0 -7.557,-3.827 63.384,63.384 0 0 0 -8.423,-2.355 c -1.108,-0.225 -2.221,-0.44 -3.342,-0.582 a 20.4,20.4 0 0 0 -3.244,-0.33 1.313,1.313 0 0 1 -0.388,-0.054 6.518,6.518 0 0 0 -1.688,-0.155 c -0.61,-0.007 -1.22,-0.022 -1.83,-0.013 a 24,24 0 0 0 -4.561,0.225 5.626,5.626 0 0 1 -0.782,0.043 5.622,5.622 0 0 0 -0.651,0.057 c -1.584,0.284 -3.175,0.535 -4.729,0.97 a 28.874,28.874 0 0 0 -3.958,1.338 34.364,34.364 0 0 0 -6.906,3.952 38.419,38.419 0 0 0 -4.168002,3.561 29.719,29.719 0 0 0 -2,2.236997 34.41,34.41 0 0 0 -3.483,5.053 34.7,34.7 0 0 0 -3.427,8.871 13.74,13.74 0 0 0 -0.469,2.82801 6.658,6.658 0 0 1 -0.114,0.774 c -0.036,0.258 -0.079,0.517 -0.091,0.777 a 35.977,35.977 0 0 1 -0.237,3.779 20.07,20.07 0 0 0 -0.069,2.481 6.434,6.434 0 0 1 -0.058,1.171 12.907,12.907 0 0 0 -0.175,2.473 c -0.017,0.915 -0.021,1.831 -0.043,2.746 -0.008,0.347 -0.049,0.694 -0.078,1.041 -0.041,0.476 -0.112,0.952 -0.121,1.429 -0.032,1.612 -0.04,3.225 -0.062,4.838 a 6.264,6.264 0 0 1 -0.056,1.173 9.688,9.688 0 0 0 -0.144,1.951 q -0.037,4.649 -0.07,9.287 a 9.5,9.5 0 0 1 -0.076,1.433 9.868,9.868 0 0 0 -0.11,1.562 v 6.277 q 0,3.139 0,6.278 a 6.19,6.19 0 0 0 0.049,1.173 10.859,10.859 0 0 1 0.134,2.083 q 0.034,5.885 0.069,11.77 a 6.9,6.9 0 0 0 0.056,1.3 11.99,11.99 0 0 1 0.146,2.213 c 0.01,0.61 0,1.221 0.02,1.831 a 40.936,40.936 0 0 0 0.239,5.868 16.028,16.028 0 0 0 0.265,2.857 c 0.145,0.813 0.193,1.645 0.366,2.451 a 25.47,25.47 0 0 0 2.556,7.111 14.648,14.648 0 0 0 2.335,3.134 13.07,13.07 0 0 0 2.458,1.936 41.557,41.557 0 0 0 7.046002,3.415 c 1.385,0.533 2.8,0.957 4.217,1.393 0.957,0.295 1.925,0.551 2.893,0.807 2.358,0.623 4.749,1.093 7.146,1.535 0.641,0.118 1.3,0.173 1.93,0.318 0.683,0.156 1.378,0.2 2.066,0.3 1.161,0.176 2.314,0.4 3.489,0.467 a 2.286,2.286 0 0 1 0.517,0.072 5.9,5.9 0 0 0 1.424,0.173 3.664,3.664 0 0 1 0.78,0.064 9.43,9.43 0 0 0 2.077,0.2 3.966,3.966 0 0 1 0.781,0.058 10.806,10.806 0 0 0 2.339,0.2 9.325,9.325 0 0 1 1.949,0.175 3.946,3.946 0 0 0 0.911,0.058 q 3.989,0.009 7.977,0 a 4.807,4.807 0 0 0 1.041,-0.07 9.849,9.849 0 0 1 1.818,-0.176 6.594,6.594 0 0 0 0.913,-0.06 c 1.455,-0.265 2.926,-0.421 4.379,-0.7 a 57.93,57.93 0 0 0 6.7,-1.719 63.5,63.5 0 0 0 8.7,-3.552 c 1.758,-0.868 3.513,-1.742 5.216,-2.719 a 56.759,56.759 0 0 0 6.066,-3.844 38.237,38.237 0 0 0 4.358,-3.741 c 0.61,-0.624 1.168,-1.29 1.74,-1.947 a 27.481,27.481 0 0 0 3.046,-4.4 28.743,28.743 0 0 0 2.816,-7.156 30.5,30.5 0 0 0 1.079,-6.819 2.134,2.134 0 0 1 0.055,-0.519 6.781,6.781 0 0 0 0.162,-1.818 q 0.007,-2.026 0,-4.054 a 4.942,4.942 0 0 0 -0.048,-1.031 z m -70.944,-36.705 a 11.844,11.844 0 0 1 -1.453,-4.028 10.6,10.6 0 0 1 -0.293,-2.193 19.12,19.12 0 0 1 -0.217,-4.16 7.367,7.367 0 0 1 0.169,-1.945 4.629,4.629 0 0 0 0.075,-0.777 9.193,9.193 0 0 1 1.133,-3.848 7.721,7.721 0 0 1 2,-2.376 10.316,10.316 0 0 1 3.046,-1.729 9.761,9.761 0 0 1 5.652,-0.108 10.3,10.3 0 0 1 2.886,1.486 6.477,6.477 0 0 1 2.3,4.525 c 0.022,0.391 0,0.783 0,1.214 a 11.545,11.545 0 0 1 -0.665,4.188 14.522,14.522 0 0 1 -0.98,2.556 22.716,22.716 0 0 1 -2.1,3.749 21.707,21.707 0 0 1 -1.624,2.037 11.513,11.513 0 0 1 -3.942,2.73 5.951,5.951 0 0 1 -2.807,0.453 5.184,5.184 0 0 1 -2.426,-0.884 2.583,2.583 0 0 1 -0.754,-0.89 z m 30.743,37.6 a 15.23,15.23 0 0 1 -0.97,2.974 13.722,13.722 0 0 1 -3.51,4.5 12.311,12.311 0 0 1 -1.2,0.786 14.693,14.693 0 0 1 -3.063,1.453 31.14,31.14 0 0 1 -4.934,1.238 5.487,5.487 0 0 1 -0.781,0.067 8.47,8.47 0 0 0 -1.426,0.159 5.082,5.082 0 0 1 -1.04,0.081 c -1.221,0.009 -2.441,0 -3.662,0 a 2.269,2.269 0 0 1 -0.261,-0.006 c -0.649,-0.072 -1.3,-0.164 -1.945,-0.215 a 11.616,11.616 0 0 1 -1.815,-0.2 c -0.675,-0.162 -1.372,-0.229 -2.057,-0.351 a 6.794,6.794 0 0 1 -2.08,-0.752 1.779,1.779 0 0 1 -0.89,-1.077 3.808,3.808 0 0 1 -0.192,-1.154 c 0.006,-0.872 0,-1.744 0,-2.616 h 0.017 c 0,-0.654 -0.015,-1.308 0.005,-1.961 0.014,-0.478 0.078,-0.953 0.112,-1.43 0.031,-0.434 0.069,-0.869 0.074,-1.3 q 0.024,-2.028 0.024,-4.055 a 4.053,4.053 0 0 1 0.561,-2.123 7.276,7.276 0 0 1 1.568,-1.913 9.515,9.515 0 0 1 2.563,-1.539 29.466,29.466 0 0 1 5.788,-1.558 c 0.776,-0.135 1.563,-0.154 2.33,-0.282 a 22.068,22.068 0 0 1 3.648,-0.18 5.621,5.621 0 0 1 1.428,0.129 3.6,3.6 0 0 0 0.647,0.089 17.576,17.576 0 0 1 6.736,1.927 9.3,9.3 0 0 1 1.838,1.239 7.939,7.939 0 0 1 2.222,3.183 11.877,11.877 0 0 1 0.49,2.422 8.7,8.7 0 0 1 -0.225,2.461 z"
         id="path16" />
    </g>
    <g
       id="text91"
       style="font-size:21.3333px;font-family:'Hello Headline';-inkscape-font-specification:'Hello Headline';fill:#f9f9f9"
       aria-label="The Fifth&#10;Anniversary Collection"
       transform="translate(0,7.6783304)">
      <path
         d="m 104.6435,214.70078 q 0,-0.98133 0.448,-1.51467 0.46933,-0.53333 1.216,-0.53333 h 2.70932 q 1.216,0 2.73067,0.0213 1.51466,0.0213 1.59999,0.0213 1.472,0 2.304,0.55466 0.85333,0.53334 0.85333,1.92 0,0.42667 -0.21333,0.74667 -0.192,0.31999 -0.448,0.51199 -0.23467,0.17067 -0.74667,0.34134 -0.49066,0.14933 -0.81066,0.21333 -0.32,0.0427 -0.96,0.14933 -0.61866,0.0853 -0.85333,0.128 v 0.29867 q 0,1.32266 0.128,4.47999 0.0853,2.09067 0.0853,3.15733 0,0.17067 -0.0213,0.53333 0,0.34134 0,0.512 -0.832,1.19467 -2.38933,1.19467 -0.59733,0 -1.152,-0.21334 -0.55466,-0.23466 -0.81066,-0.64 -0.128,-1.00266 -0.128,-3.02932 0,-1.30133 0.064,-2.624 0.0213,-0.78933 0.0853,-2.13333 0.0853,-1.36533 0.0853,-1.408 -0.064,0 -0.42666,-0.0213 -0.36267,-0.0213 -0.78934,-0.0427 -0.40533,-0.0427 -0.68266,-0.0853 -0.768,-0.0853 -1.19467,-0.40533 -0.256,-0.128 -0.46933,-0.68267 -0.21333,-0.55466 -0.21333,-1.45066 z m 21.82398,12.62931 h -0.14934 q -1.17333,0 -1.53599,-0.61867 -0.53334,-0.83199 -0.53334,-3.05066 v -1.216 l -2.45333,0.17067 q -0.0213,0.128 -0.064,1.68533 -0.0213,1.55733 -0.23466,2.176 -0.32,0.93866 -1.57867,0.93866 -0.83199,0 -1.27999,-0.27733 -0.448,-0.27733 -0.61867,-1.10933 -0.49067,-2.41066 -0.49067,-10.11198 v -0.23467 q 0,-0.61867 0.0213,-0.98133 0.0213,-0.36267 0.128,-0.78934 0.128,-0.42666 0.34133,-0.63999 0.21333,-0.21334 0.59733,-0.36267 0.40534,-0.14933 1.00267,-0.14933 0.78933,0 1.32266,0.46933 0.64,0.61866 0.64,2.112 0,0.512 0.0213,1.40799 0.0427,0.87467 0.0427,1.408 v 0.61867 l 2.58133,0.0213 q 0.0213,-0.064 0.0213,-1.00266 0,-2.28267 0.0853,-2.85867 0.192,-1.19466 0.61866,-1.72799 0.448,-0.53334 1.68533,-0.53334 0.66134,0 1.024,0.32 0.36267,0.32 0.512,1.06667 0.21333,1.024 0.21333,2.96533 v 4.30932 q 0,4.45866 -0.61866,5.33333 -0.42667,0.61866 -1.30133,0.66133 z m 7.91466,-4.94933 q 0,0.40534 0.40533,0.74667 0.576,0.46933 1.36534,0.46933 1.21599,0 2.77332,-0.576 0.192,-0.064 0.36267,-0.064 0.49067,0 0.896,0.81067 0.17067,0.34133 0.17067,0.66133 0,0.512 -0.29867,1.00267 -0.59733,1.024 -1.94133,1.49333 -1.32267,0.448 -2.752,0.40533 -2.70933,-0.0853 -4.24532,-2.19733 -1.51467,-2.112 -1.51467,-5.01332 0,-2.688 1.152,-4.62933 0.74667,-1.28 2.048,-2.048 1.32266,-0.768 2.81599,-0.768 2.048,0 3.41333,1.17333 1.38667,1.152 1.38667,3.02933 0,1.57867 -0.74667,2.624 -0.72533,1.024 -2.09066,1.68533 -1.344,0.66133 -2.85867,0.81067 -0.34133,0.0427 -0.34133,0.38399 z m 1.30133,-3.94666 q 1.04533,-0.68266 1.04533,-1.49333 0,-0.81066 -0.72533,-0.81066 -0.85333,0 -1.49333,0.68266 -0.768,0.768 -0.768,2.00533 0,0.21334 0.0213,0.32 0.89599,-0.0427 1.91999,-0.704 z m 17.45065,-1.83466 h -0.192 l -2.66666,-0.064 q -0.68266,0 -1.13066,0.192 -0.55467,0.256 -0.55467,1.25867 0,1.00266 0.0427,1.34399 0.27733,0 0.896,0 0.61866,-0.0213 0.85333,-0.0213 1.23733,0 1.81333,0.29867 0.576,0.29866 0.576,1.19466 0,0.87467 -0.384,1.17333 -0.36267,0.29867 -1.36533,0.34133 -1.92,0.0853 -2.45333,0.256 -0.064,0.36267 -0.064,1.87733 0,1.49334 -0.23467,2.15467 -0.27733,0.72533 -1.472,0.72533 -1.34399,0 -1.81333,-0.74667 -0.384,-0.57599 -0.384,-1.64266 v -0.53333 q 0,-1.04533 0.0427,-3.52 0.064,-2.47466 0.064,-3.69066 0,-1.216 0.128,-1.94133 0.14933,-0.74666 0.576,-1.38666 0.42667,-0.64 1.28,-0.93867 0.85333,-0.29866 2.23999,-0.36266 1.19467,-0.064 1.92,-0.064 0.68267,0 1.152,0.0427 0.46933,0.0213 1.088,0.14934 0.61866,0.128 0.98133,0.384 0.384,0.23466 0.64,0.704 0.27733,0.46933 0.27733,1.10933 0,0.91733 -0.448,1.30133 -0.448,0.36266 -1.408,0.40533 z m 7.08267,-0.512 v 0.68267 q 0,1.23733 -0.128,4.05332 -0.192,3.92533 -0.192,5.056 v 0.78933 q -0.68267,0.61866 -1.94133,0.61866 -0.74667,0 -1.344,-0.34133 -0.576,-0.36267 -0.64,-1.10933 -0.064,-0.85333 -0.064,-1.792 0,-0.49066 0.10667,-3.43466 0.0853,-2.26133 0.0853,-3.39199 0,-0.59734 -0.0213,-1.74933 -0.0213,-1.152 -0.0213,-1.6 v -0.832 q 0.72534,-0.42667 1.68533,-0.42667 1.64267,0 2.15467,1.13067 0.27733,0.59733 0.32,2.34666 z m 5.33331,3.34933 q 0.192,-0.064 1.04533,-0.064 l 1.45066,-0.064 q 1.81333,-0.0853 1.856,1.45066 0,0.87467 -0.53333,1.42934 -0.512,0.55466 -1.344,0.55466 l -2.47466,0.0853 v 0.576 q 0,0.21334 0,0.704 0.0213,0.49067 0.0213,0.74667 0,1.088 -0.29867,1.66399 -0.27733,0.576 -0.63999,0.704 -0.36267,0.128 -0.98134,0.14934 -0.46933,0 -1.02399,-0.21334 -0.55467,-0.21333 -0.81067,-0.59733 l -0.0427,-0.704 q -0.10666,-1.72799 -0.10666,-5.61066 v -0.36266 q 0,-2.944 0.46933,-4.18133 0.46933,-1.28 1.792,-2.23999 1.32266,-0.96 3.26399,-1.00267 1.57867,-0.0427 2.51733,0.17067 0.81067,0.17066 1.216,0.66133 0.42667,0.46933 0.448,1.36533 v 0.0853 q 0,1.19467 -0.96,1.68533 -0.512,0.256 -0.98133,0.36267 -0.46933,0.10667 -1.23733,0.14933 -0.74667,0.0427 -1.024,0.0853 -1.00267,0.10666 -1.36533,0.55466 -0.27734,0.36267 -0.27734,1.32267 0,0.384 0.0213,0.53333 z m 10.70933,6.57066 q -0.128,-0.46934 -0.128,-1.57867 v -0.61866 q 0,-1.70667 0.0213,-2.38933 v -4.352 l -1.23733,-0.0853 q -0.512,-0.0427 -0.78933,-0.064 -0.27734,-0.0427 -0.74667,-0.14933 -0.46933,-0.128 -0.74666,-0.32 -0.256,-0.21334 -0.46934,-0.576 -0.192,-0.36267 -0.192,-0.87467 0,-0.61866 0.21334,-1.04533 0.21333,-0.448 0.49066,-0.66133 0.29867,-0.21333 0.832,-0.34133 0.55467,-0.128 0.93867,-0.14934 0.384,-0.0213 1.08799,-0.0213 h 6.35733 q 2.83733,0 2.85866,1.77066 0,1.36534 -1.17333,1.94133 -0.66133,0.32 -2.26133,0.46934 l -0.78933,0.064 v 2.36799 q 0,0.17067 0,0.53334 0.0213,0.36266 0.0213,0.55466 v 2.53866 q 0,2.176 -0.23467,3.136 -0.29866,1.17333 -2.04799,1.17333 -1.70667,0 -2.00533,-1.32266 z m 18.32529,1.32266 h -0.14933 q -1.17334,0 -1.536,-0.61867 -0.53333,-0.83199 -0.53333,-3.05066 v -1.216 l -2.45333,0.17067 q -0.0213,0.128 -0.064,1.68533 -0.0213,1.55733 -0.23467,2.176 -0.32,0.93866 -1.57866,0.93866 -0.832,0 -1.28,-0.27733 -0.448,-0.27733 -0.61867,-1.10933 -0.49066,-2.41066 -0.49066,-10.11198 v -0.23467 q 0,-0.61867 0.0213,-0.98133 0.0213,-0.36267 0.128,-0.78934 0.128,-0.42666 0.34133,-0.63999 0.21333,-0.21334 0.59733,-0.36267 0.40534,-0.14933 1.00267,-0.14933 0.78933,0 1.32266,0.46933 0.64,0.61866 0.64,2.112 0,0.512 0.0213,1.40799 0.0427,0.87467 0.0427,1.408 v 0.61867 l 2.58133,0.0213 q 0.0213,-0.064 0.0213,-1.00266 0,-2.28267 0.0853,-2.85867 0.192,-1.19466 0.61866,-1.72799 0.448,-0.53334 1.68533,-0.53334 0.66134,0 1.024,0.32 0.36267,0.32 0.512,1.06667 0.21334,1.024 0.21334,2.96533 v 4.30932 q 0,4.45866 -0.61867,5.33333 -0.42667,0.61866 -1.30133,0.66133 z"
         id="path96" />
      <path
         d="m 115.26748,247.95939 q 0,0.17067 0.128,1.28 0.128,1.088 0.128,1.70666 0,1.30133 -0.53333,2.176 -0.53333,0.85333 -1.792,0.85333 -0.81066,0 -1.25866,-0.66133 -0.448,-0.68267 -0.53334,-1.472 -0.0853,-0.81066 -0.14933,-1.664 -0.0427,-0.85333 -0.10667,-1.00266 -0.23466,-0.29867 -1.10933,-0.29867 -0.91733,0 -1.024,0.29867 -0.064,0.23467 -0.14933,0.66133 -0.064,0.40533 -0.10667,0.576 -0.0427,0.14933 -0.14933,0.68267 -0.10666,0.53333 -0.192,0.81066 -0.064,0.256 -0.23466,0.704 -0.17067,0.448 -0.36267,0.68267 -0.17067,0.21333 -0.49067,0.40533 -0.29866,0.192 -0.68266,0.192 -0.78933,0 -1.30133,-0.61867 -0.49067,-0.61866 -0.66134,-1.344 -0.14933,-0.74666 -0.10666,-1.45066 0,-0.704 0.0853,-1.62133 0.0853,-0.91733 0.17067,-1.472 0.0853,-0.55466 0.27733,-1.70666 0.192,-1.152 0.23467,-1.408 0.40533,-2.47466 1.40799,-3.79733 1.024,-1.32266 3.17867,-1.32266 0.93866,0 1.68533,0.29866 0.74666,0.29867 1.23733,0.704 0.512,0.40534 0.91733,1.19467 0.40533,0.768 0.61867,1.38666 0.23466,0.61867 0.42666,1.70667 0.192,1.06666 0.256,1.70666 0.0853,0.64 0.192,1.81333 z m -5.16266,-5.37599 q -0.40533,0 -0.74666,0.768 -0.32,0.74666 -0.32,1.57866 0,0.576 0.21333,0.768 0.23467,0.17067 0.768,0.17067 h 0.10667 q 0.55466,0 0.76799,-0.192 0.23467,-0.192 0.23467,-0.768 0,-0.74667 -0.27733,-1.536 -0.27733,-0.78933 -0.74667,-0.78933 z m 16.256,11.30665 q -1.984,0 -1.984,-2.28266 l 0.10667,-3.17867 q 0,-0.768 -0.0427,-1.23733 -0.0213,-0.46933 -0.17067,-1.13066 -0.128,-0.68267 -0.49066,-1.024 -0.34134,-0.36267 -0.896,-0.36267 -0.55467,0 -1.00267,0.384 -0.448,0.384 -0.576,1.13067 -0.10666,0.61866 -0.10666,1.49333 0,0.384 0,1.32266 0.0213,0.91733 0.0213,1.32267 0,1.152 -0.14933,1.77066 -0.17067,0.78933 -0.49067,1.17333 -0.53333,0.61867 -1.55733,0.61867 -0.72533,0 -1.17333,-0.448 -0.512,-0.512 -0.64,-2.048 -0.17067,-2.53866 -0.36267,-6.03732 -0.192,-3.49866 -0.36266,-5.22666 0.40533,-0.27733 0.74666,-0.40533 0.36267,-0.128 0.55467,-0.14934 0.21333,-0.0213 0.59733,-0.0213 0.91733,0 1.51467,0.59733 0.61866,0.59734 0.83199,1.42933 0.576,-0.76799 1.64267,-1.21599 1.088,-0.448 2.112,-0.448 1.23733,0 2.13333,0.448 0.89599,0.448 1.38666,1.23733 0.49067,0.78933 0.704,1.728 0.21333,0.93866 0.21333,2.09066 v 0.192 q -0.0213,1.23733 -0.064,2.19733 -0.0427,0.93866 -0.21333,2.15466 -0.14933,1.216 -0.40533,2.02666 -0.256,0.78934 -0.74667,1.344 -0.46933,0.55467 -1.13066,0.55467 z m 13.20534,0 q -1.984,0 -1.984,-2.28266 l 0.10667,-3.17867 q 0,-0.768 -0.0427,-1.23733 -0.0213,-0.46933 -0.17066,-1.13066 -0.128,-0.68267 -0.49067,-1.024 -0.34133,-0.36267 -0.896,-0.36267 -0.55466,0 -1.00266,0.384 -0.448,0.384 -0.576,1.13067 -0.10667,0.61866 -0.10667,1.49333 0,0.384 0,1.32266 0.0213,0.91733 0.0213,1.32267 0,1.152 -0.14933,1.77066 -0.17067,0.78933 -0.49067,1.17333 -0.53333,0.61867 -1.55733,0.61867 -0.72533,0 -1.17333,-0.448 -0.512,-0.512 -0.64,-2.048 -0.17066,-2.53866 -0.36266,-6.03732 -0.192,-3.49866 -0.36267,-5.22666 0.40533,-0.27733 0.74667,-0.40533 0.36266,-0.128 0.55466,-0.14934 0.21334,-0.0213 0.59733,-0.0213 0.91734,0 1.51467,0.59733 0.61866,0.59734 0.832,1.42933 0.576,-0.76799 1.64266,-1.21599 1.088,-0.448 2.112,-0.448 1.23733,0 2.13333,0.448 0.896,0.448 1.38666,1.23733 0.49067,0.78933 0.704,1.728 0.21333,0.93866 0.21333,2.09066 v 0.192 q -0.0213,1.23733 -0.064,2.19733 -0.0427,0.93866 -0.21333,2.15466 -0.14933,1.216 -0.40533,2.02666 -0.256,0.78934 -0.74667,1.344 -0.46933,0.55467 -1.13066,0.55467 z m 8.40533,-11.13598 v 0.68266 q 0,1.23733 -0.128,4.05333 -0.192,3.92533 -0.192,5.05599 v 0.78933 q -0.68266,0.61867 -1.94133,0.61867 -0.74666,0 -1.344,-0.34133 -0.576,-0.36267 -0.64,-1.10934 -0.064,-0.85333 -0.064,-1.79199 0,-0.49067 0.10667,-3.43466 0.0853,-2.26133 0.0853,-3.392 0,-0.59733 -0.0213,-1.74933 -0.0213,-1.152 -0.0213,-1.6 v -0.832 q 0.72533,-0.42666 1.68533,-0.42666 1.64266,0 2.15466,1.13066 0.27733,0.59734 0.32,2.34667 z m 1.32265,-2.73067 q 0.576,-0.55466 1.98399,-0.55466 1.024,0 1.6,0.53333 0.59733,0.53333 0.832,1.68533 0.91733,4.26666 1.6,6.52799 0.0853,0.21333 0.256,0.21333 0.32,-0.0213 0.68266,-0.68266 0.384,-0.68267 0.61867,-1.344 0.46933,-1.32266 0.49066,-1.87733 v -0.0853 q 0,-0.55467 -0.34133,-1.64267 -0.32,-1.088 -0.32,-1.62133 0,-0.23466 0.0213,-0.36266 0.23466,-1.51467 2.19733,-1.51467 0.85333,0 1.45066,0.55467 0.59733,0.55466 0.81067,1.51466 0.17066,0.68267 0.17066,1.6 0,2.51733 -1.04533,5.14132 -0.55467,1.45067 -1.664,3.11467 -0.87466,1.30133 -1.68533,1.96266 -0.78933,0.66133 -2.00533,0.66133 -1.024,0 -1.87733,-0.78933 -0.85333,-0.78933 -1.28,-1.792 l -0.10666,-0.256 q -1.792,-4.88532 -2.41067,-9.06665 -0.14933,-1.04533 -0.14933,-1.30133 0,-0.448 0.17067,-0.61867 z m 17.57863,9.02399 q 0,0.40533 0.40534,0.74666 0.576,0.46934 1.36533,0.46934 1.216,0 2.77333,-0.576 0.192,-0.064 0.36266,-0.064 0.49067,0 0.896,0.81066 0.17067,0.34134 0.17067,0.66134 0,0.512 -0.29867,1.00266 -0.59733,1.024 -1.94133,1.49333 -1.32266,0.448 -2.75199,0.40533 -2.70933,-0.0853 -4.24533,-2.19732 -1.51466,-2.112 -1.51466,-5.01333 0,-2.688 1.15199,-4.62933 0.74667,-1.27999 2.048,-2.04799 1.32267,-0.768 2.816,-0.768 2.04799,0 3.41332,1.17333 1.38667,1.152 1.38667,3.02933 0,1.57866 -0.74667,2.62399 -0.72533,1.024 -2.09066,1.68533 -1.344,0.66134 -2.85866,0.81067 -0.34134,0.0427 -0.34134,0.384 z m 1.30134,-3.94666 q 1.04533,-0.68267 1.04533,-1.49333 0,-0.81067 -0.72533,-0.81067 -0.85334,0 -1.49334,0.68267 -0.76799,0.768 -0.76799,2.00533 0,0.21333 0.0213,0.32 0.896,-0.0427 1.92,-0.704 z m 10.19731,4.09599 -0.0213,0.85333 q -0.064,2.60267 -0.14933,2.98667 -0.0853,0.42666 -0.384,0.64 -0.29867,0.21333 -0.59733,0.256 -0.27734,0.0213 -0.81067,0.0213 -1.30133,0 -1.74933,-1.088 -0.17067,-0.40533 -0.17067,-1.42933 v -8.42665 q 0,-0.36267 0,-0.46934 0.0213,-0.10666 0.0213,-0.68266 0,-0.81067 0.448,-1.38667 0.46933,-0.59733 1.19466,-0.87466 0.74667,-0.27734 1.45067,-0.384 0.70399,-0.128 1.45066,-0.128 h 0.21333 q 2.432,0 3.98933,1.17333 1.57866,1.152 1.57866,3.34933 0,1.23733 -0.46933,2.36799 -0.46933,1.13067 -1.19466,1.68533 1.72799,1.38667 1.72799,4.416 0,2.00533 -1.98399,2.00533 -0.896,0 -1.32267,-0.36267 -0.42666,-0.36266 -0.42666,-1.25866 -0.064,-0.72533 -0.23467,-1.55733 -0.14933,-0.768 -0.78933,-1.38667 -0.64,-0.61866 -1.472,-0.61866 -0.10667,0 -0.21333,0.0853 -0.0853,0.0853 -0.0853,0.21333 z m 0.17067,-6.52799 v 2.47467 q 0.40533,0.21333 0.87467,0.21333 0.59733,0 0.98133,-0.46933 0.40533,-0.49067 0.40533,-1.17334 0,-0.59733 -0.40533,-0.98133 -0.384,-0.40533 -0.96,-0.40533 -0.61867,0 -0.896,0.34133 z m 11.96798,1.216 q 0.10667,0.23467 1.94133,1.408 l 0.36267,0.23466 q 0.832,0.53334 1.25866,0.85334 0.42667,0.29866 0.98134,0.832 0.55466,0.53333 0.78933,1.13066 0.23466,0.59733 0.23466,1.32267 0,4.41599 -6.27199,4.41599 -0.57599,0 -1.23733,-0.10667 -0.66133,-0.10666 -1.32266,-0.32 -0.64,-0.23466 -1.06667,-0.66133 -0.42666,-0.42667 -0.42666,-0.96 0,-0.704 0.29866,-1.10933 0.29867,-0.42667 0.87467,-0.59733 0.59733,-0.192 1.17333,-0.256 0.59733,-0.0853 1.472,-0.17067 0.87466,-0.0853 1.45066,-0.21333 0.32,-0.064 0.32,-0.29867 0,-0.14933 -0.14933,-0.23466 l -1.32267,-0.72534 q -1.83466,-1.08799 -2.79466,-2.17599 -0.93866,-1.10933 -0.93866,-2.70933 0,-2.048 1.72799,-3.24266 1.728,-1.216 4.84266,-1.216 1.74933,0 2.496,0.61866 0.74667,0.59734 0.74667,1.49334 0,0.78933 -0.74667,1.27999 -0.74667,0.49067 -1.64266,0.64 -0.87467,0.128 -1.83467,0.23467 -0.93866,0.10666 -1.13066,0.192 -0.128,0.064 -0.128,0.192 0,0.064 0.0427,0.14933 z m 14.93329,9.68532 q -0.23466,-0.128 -0.53333,-0.42667 -0.29867,-0.32 -0.384,-0.53333 -0.74667,0.512 -1.088,0.72533 -0.34133,0.21334 -1.00266,0.42667 -0.66134,0.192 -1.42933,0.192 -1.664,0 -2.85867,-1.152 -1.17333,-1.152 -1.17333,-2.816 0,-1.40799 0.64,-2.49599 0.64,-1.088 1.664,-1.664 1.04533,-0.59733 2.17599,-0.896 1.152,-0.29866 2.34667,-0.29866 -0.0213,-0.59734 -0.0853,-0.93867 -0.064,-0.34133 -0.36266,-0.61866 -0.27733,-0.29867 -0.81067,-0.29867 -0.55466,0 -1.57866,0.42667 -1.00267,0.40533 -1.42933,0.40533 -1.32267,0 -1.32267,-1.64267 0,-0.72533 0.53334,-1.27999 0.55466,-0.576 1.36533,-0.85334 0.832,-0.29866 1.59999,-0.448 0.78934,-0.14933 1.42934,-0.14933 1.66399,0 2.85866,0.85333 1.19466,0.85334 1.59999,2.304 0.34134,1.13066 0.34134,2.98666 0,0.40533 -0.0427,1.13067 -0.064,1.15199 -0.064,2.49599 0,1.728 0.61867,3.22133 0.34133,0.78933 0.34133,0.832 0,0.42667 -0.55467,0.68267 -0.53333,0.25599 -1.25866,0.25599 -0.96,0 -1.536,-0.42666 z m -2.51733,-5.88799 q -0.87466,0 -1.55733,0.46933 -0.68266,0.448 -0.68266,1.23733 0,0.42667 0.32,0.72533 0.31999,0.27734 0.72533,0.27734 1.30133,0 1.98399,-1.06667 v -1.42933 q -0.17066,-0.21333 -0.78933,-0.21333 z m 10.98664,1.51466 -0.0213,0.85333 q -0.064,2.60267 -0.14934,2.98667 -0.0853,0.42666 -0.384,0.64 -0.29866,0.21333 -0.59733,0.256 -0.27733,0.0213 -0.81066,0.0213 -1.30134,0 -1.74933,-1.088 -0.17067,-0.40533 -0.17067,-1.42933 v -8.42665 q 0,-0.36267 0,-0.46934 0.0213,-0.10666 0.0213,-0.68266 0,-0.81067 0.448,-1.38667 0.46933,-0.59733 1.19467,-0.87466 0.74666,-0.27734 1.45066,-0.384 0.704,-0.128 1.45066,-0.128 h 0.21334 q 2.43199,0 3.98932,1.17333 1.57867,1.152 1.57867,3.34933 0,1.23733 -0.46933,2.36799 -0.46934,1.13067 -1.19467,1.68533 1.728,1.38667 1.728,4.416 0,2.00533 -1.984,2.00533 -0.896,0 -1.32266,-0.36267 -0.42667,-0.36266 -0.42667,-1.25866 -0.064,-0.72533 -0.23466,-1.55733 -0.14934,-0.768 -0.78934,-1.38667 -0.64,-0.61866 -1.47199,-0.61866 -0.10667,0 -0.21334,0.0853 -0.0853,0.0853 -0.0853,0.21333 z m 0.17067,-6.52799 v 2.47467 q 0.40533,0.21333 0.87466,0.21333 0.59733,0 0.98133,-0.46933 0.40534,-0.49067 0.40534,-1.17334 0,-0.59733 -0.40534,-0.98133 -0.384,-0.40533 -0.96,-0.40533 -0.61866,0 -0.89599,0.34133 z m 13.86665,5.48266 q -0.46933,0.27733 -1.32266,0.27733 -1.472,0 -2.66666,-0.68266 -1.17333,-0.68267 -1.792,-1.89867 -0.896,-1.77066 -0.896,-4.65065 0,-0.46934 0.064,-0.74667 0.29867,-1.32266 2.15466,-1.32266 0.704,0 1.30134,0.19199 0.42666,0.384 0.57599,1.77067 0.14934,1.38666 0.40534,2.51733 0.27733,1.10933 1.04533,1.10933 0.40533,0 0.66133,-0.21333 0.27733,-0.21334 0.448,-0.68267 0.17067,-0.46933 0.27733,-0.93866 0.10667,-0.46934 0.256,-1.28 0.17067,-0.81067 0.32,-1.408 0.36267,-0.78933 1.06667,-0.832 h 0.36266 q 1.19467,0 1.728,1.088 0.55467,1.06666 0.55467,2.77333 0,0.53333 -0.0853,1.55733 0,0.0213 -0.0213,0.10667 0,0.064 0,0.10666 -0.46933,5.01333 -2.368,7.21066 -1.59999,1.87733 -4.73599,1.87733 -1.024,0 -1.728,-0.53333 -0.68266,-0.53334 -0.68266,-1.536 v -0.14934 q 0,-0.61866 0.512,-1.02399 0.512,-0.40534 1.25866,-0.49067 1.6,-0.17067 2.28267,-0.576 0.70399,-0.42666 0.93866,-1.17333 0.064,-0.23467 0.0853,-0.448 z m 19.30665,-7.82932 q 1.15199,0.896 1.15199,2.00533 0,0.81067 -0.46933,1.30133 -0.448,0.49067 -1.30133,0.49067 -0.40533,0 -0.98133,-0.192 -0.14934,-0.0427 -0.59733,-0.21334 -0.42667,-0.192 -0.768,-0.27733 -0.32,-0.0853 -0.68267,-0.0853 -1.55733,0 -2.24,1.00266 -0.68266,0.98134 -0.68266,2.28267 0,1.10933 0.72533,2.02666 0.72533,0.896 1.89866,0.93867 0.91734,0.0427 1.62134,-0.34134 0.72533,-0.384 1.32266,-0.768 0.59733,-0.40533 1.17333,-0.40533 0.32,0 0.42667,0.0213 0.42666,0.0853 0.72533,0.42667 0.29867,0.32 0.29867,0.85333 0,0.40533 -0.0853,0.74667 -0.384,1.664 -2.09066,2.68799 -1.68533,1.00267 -3.43466,1.00267 -2.85866,0 -4.67199,-2.176 -1.792,-2.17599 -1.792,-5.03466 0,-3.09333 1.792,-5.20532 1.81333,-2.112 4.84265,-2.19733 2.34667,-0.0427 3.81867,1.10933 z m 13.24798,1.856 q 0.74667,1.66399 0.74667,4.45866 0,1.34399 -0.34134,2.60266 -0.32,1.25866 -1.00266,2.34666 -0.66133,1.088 -1.81333,1.74933 -1.13067,0.66133 -2.60266,0.66133 -0.85334,0 -1.408,-0.12799 -1.536,-0.384 -2.38933,-1.28 -0.85333,-0.91733 -1.344,-2.304 -0.46933,-1.408 -0.46933,-3.58399 0,-2.09067 0.42666,-3.54133 0.42667,-1.472 1.728,-2.60266 1.408,-1.23734 3.47733,-1.28 h 0.0853 q 1.664,0 2.88,0.61866 1.23733,0.61867 2.02666,2.28267 z m -4.75732,0.72533 q -0.512,0 -0.896,0.34133 -0.36267,0.34133 -0.53334,0.896 -0.17066,0.53333 -0.256,1.024 -0.064,0.49066 -0.064,0.96 0,3.77599 1.6,3.77599 0.85333,0 1.25867,-1.088 0.42666,-1.10933 0.42666,-2.92266 0,-1.152 -0.384,-2.06933 -0.36266,-0.91733 -1.15199,-0.91733 z m 7.93598,-3.52 q 0.32,-0.064 0.64,-0.064 1.23733,0 2.00533,0.768 0.78933,0.768 0.81066,2.09067 v 0.55466 q 0,1.472 0.0213,3.52 0.0213,2.02666 0.0213,2.58133 0,1.08799 1.19467,1.08799 0.51199,-0.0213 1.15199,-0.192 0.66134,-0.19199 0.87467,-0.23466 0.34133,-0.064 0.74666,-0.064 1.04534,0 1.49334,0.81066 0.14933,0.27734 0.14933,0.704 0,3.02933 -5.09866,3.02933 -2.176,0 -3.60533,-1.152 -1.42933,-1.15199 -1.42933,-3.64799 0,-0.0853 0,-0.29867 0.0213,-0.21333 0.0213,-0.32 0.0427,-1.62133 0.0427,-2.38933 0,-0.91733 -0.064,-2.66666 -0.0427,-1.77066 -0.0427,-2.66666 0,-0.72533 0.27734,-1.024 0.27733,-0.32 0.78933,-0.42667 z m 10.77335,0 q 0.32,-0.064 0.63999,-0.064 1.23734,0 2.00533,0.768 0.78934,0.768 0.81067,2.09067 v 0.55466 q 0,1.472 0.0213,3.52 0.0213,2.02666 0.0213,2.58133 0,1.08799 1.19466,1.08799 0.512,-0.0213 1.152,-0.192 0.66133,-0.19199 0.87467,-0.23466 0.34133,-0.064 0.74666,-0.064 1.04533,0 1.49333,0.81066 0.14933,0.27734 0.14933,0.704 0,3.02933 -5.09865,3.02933 -2.176,0 -3.60533,-1.152 -1.42933,-1.15199 -1.42933,-3.64799 0,-0.0853 0,-0.29867 0.0213,-0.21333 0.0213,-0.32 0.0427,-1.62133 0.0427,-2.38933 0,-0.91733 -0.064,-2.66666 -0.0427,-1.77066 -0.0427,-2.66666 0,-0.72533 0.27733,-1.024 0.27734,-0.32 0.78934,-0.42667 z m 14.12265,9.66399 q 0,0.40533 0.40533,0.74666 0.576,0.46934 1.36533,0.46934 1.216,0 2.77333,-0.576 0.192,-0.064 0.36267,-0.064 0.49066,0 0.896,0.81066 0.17066,0.34134 0.17066,0.66134 0,0.512 -0.29866,1.00266 -0.59733,1.024 -1.94133,1.49333 -1.32267,0.448 -2.752,0.40533 -2.70933,-0.0853 -4.24533,-2.19732 -1.51466,-2.112 -1.51466,-5.01333 0,-2.688 1.152,-4.62933 0.74666,-1.27999 2.048,-2.04799 1.32266,-0.768 2.81599,-0.768 2.048,0 3.41333,1.17333 1.38666,1.152 1.38666,3.02933 0,1.57866 -0.74666,2.62399 -0.72533,1.024 -2.09067,1.68533 -1.34399,0.66134 -2.85866,0.81067 -0.34133,0.0427 -0.34133,0.384 z m 1.30133,-3.94666 q 1.04533,-0.68267 1.04533,-1.49333 0,-0.81067 -0.72533,-0.81067 -0.85333,0 -1.49333,0.68267 -0.768,0.768 -0.768,2.00533 0,0.21333 0.0213,0.32 0.896,-0.0427 1.92,-0.704 z m 15.616,-1.856 q -0.21334,0.17067 -0.832,0.21333 -0.59733,0.0213 -1.408,0.0213 -0.81066,0 -1.23733,0.0853 -0.98133,0.192 -1.57866,1.024 -0.59734,0.832 -0.59734,1.792 0,2.64533 2.00533,2.92266 0.384,0.0427 0.64,0.0427 0.384,0 1.17333,-0.0427 0.81067,-0.064 1.13067,-0.064 h 0.17067 q 0.59733,0.0427 1.04533,0.448 0.46933,0.384 0.46933,1.152 -0.0213,1.89866 -1.92,2.49599 -1.088,0.36267 -2.51733,0.36267 -1.66399,0 -3.00799,-0.448 -1.74933,-0.59733 -2.56,-2.19733 -0.78933,-1.6 -0.78933,-3.81866 0,-4.79999 2.60266,-6.71999 1.68533,-1.25867 4.45866,-1.25867 0.384,0 0.87467,0.0853 0.512,0.0853 1.13066,0.29866 0.64,0.192 1.04533,0.66134 0.42667,0.46933 0.42667,1.10933 0,0.68266 -0.21333,1.19466 -0.192,0.512 -0.512,0.64 z m 5.824,9.42932 q -0.12799,-0.46933 -0.12799,-1.57866 v -0.61867 q 0,-1.70666 0.0213,-2.38933 v -4.35199 l -1.23733,-0.0853 q -0.512,-0.0427 -0.78934,-0.064 -0.27733,-0.0427 -0.74666,-0.14933 -0.46933,-0.128 -0.74667,-0.32 -0.256,-0.21333 -0.46933,-0.576 -0.192,-0.36266 -0.192,-0.87466 0,-0.61867 0.21333,-1.04533 0.21334,-0.448 0.49067,-0.66134 0.29867,-0.21333 0.832,-0.34133 0.55467,-0.128 0.93866,-0.14933 0.384,-0.0213 1.088,-0.0213 h 6.35733 q 2.83732,0 2.85866,1.77067 0,1.36533 -1.17333,1.94133 -0.66134,0.32 -2.26133,0.46933 l -0.78934,0.064 v 2.368 q 0,0.17066 0,0.53333 0.0213,0.36267 0.0213,0.55467 v 2.53866 q 0,2.17599 -0.23467,3.13599 -0.29866,1.17333 -2.04799,1.17333 -1.70667,0 -2.00534,-1.32266 z m 13.90931,-9.91998 v 0.68266 q 0,1.23733 -0.128,4.05333 -0.192,3.92533 -0.192,5.05599 v 0.78933 q -0.68266,0.61867 -1.94133,0.61867 -0.74666,0 -1.344,-0.34133 -0.576,-0.36267 -0.64,-1.10934 -0.064,-0.85333 -0.064,-1.79199 0,-0.49067 0.10667,-3.43466 0.0853,-2.26133 0.0853,-3.392 0,-0.59733 -0.0213,-1.74933 -0.0213,-1.152 -0.0213,-1.6 v -0.832 q 0.72533,-0.42666 1.68533,-0.42666 1.64266,0 2.15466,1.13066 0.27733,0.59734 0.32,2.34667 z m 11.92529,-0.576 q 0.74667,1.66399 0.74667,4.45866 0,1.34399 -0.34134,2.60266 -0.32,1.25866 -1.00266,2.34666 -0.66133,1.088 -1.81333,1.74933 -1.13067,0.66133 -2.60267,0.66133 -0.85333,0 -1.40799,-0.12799 -1.536,-0.384 -2.38933,-1.28 -0.85333,-0.91733 -1.344,-2.304 -0.46933,-1.408 -0.46933,-3.58399 0,-2.09067 0.42666,-3.54133 0.42667,-1.472 1.728,-2.60266 1.408,-1.23734 3.47733,-1.28 h 0.0853 q 1.664,0 2.88,0.61866 1.23733,0.61867 2.02666,2.28267 z m -4.75733,0.72533 q -0.512,0 -0.89599,0.34133 -0.36267,0.34133 -0.53334,0.896 -0.17066,0.53333 -0.256,1.024 -0.064,0.49066 -0.064,0.96 0,3.77599 1.6,3.77599 0.85333,0 1.25867,-1.088 0.42666,-1.10933 0.42666,-2.92266 0,-1.152 -0.384,-2.06933 -0.36266,-0.91733 -1.152,-0.91733 z m 16.29864,10.98665 q -1.98399,0 -1.98399,-2.28266 l 0.10666,-3.17867 q 0,-0.768 -0.0427,-1.23733 -0.0213,-0.46933 -0.17067,-1.13066 -0.128,-0.68267 -0.49067,-1.024 -0.34133,-0.36267 -0.896,-0.36267 -0.55466,0 -1.00266,0.384 -0.448,0.384 -0.576,1.13067 -0.10667,0.61866 -0.10667,1.49333 0,0.384 0,1.32266 0.0213,0.91733 0.0213,1.32267 0,1.152 -0.14934,1.77066 -0.17066,0.78933 -0.49066,1.17333 -0.53333,0.61867 -1.55733,0.61867 -0.72534,0 -1.17333,-0.448 -0.512,-0.512 -0.64,-2.048 -0.17067,-2.53866 -0.36267,-6.03732 -0.192,-3.49866 -0.36267,-5.22666 0.40534,-0.27733 0.74667,-0.40533 0.36267,-0.128 0.55467,-0.14934 0.21333,-0.0213 0.59733,-0.0213 0.91733,0 1.51466,0.59733 0.61867,0.59734 0.832,1.42933 0.576,-0.76799 1.64267,-1.21599 1.08799,-0.448 2.11199,-0.448 1.23733,0 2.13333,0.448 0.896,0.448 1.38667,1.23733 0.49066,0.78933 0.704,1.728 0.21333,0.93866 0.21333,2.09066 v 0.192 q -0.0213,1.23733 -0.064,2.19733 -0.0427,0.93866 -0.21333,2.15466 -0.14934,1.216 -0.40534,2.02666 -0.256,0.78934 -0.74666,1.344 -0.46934,0.55467 -1.13067,0.55467 z"
         id="path97" />
    </g>
  </g>
</svg>
